<?xml version="1.0" encoding="UTF-8"?>
<svg version="1.1" xmlns="http://www.w3.org/2000/svg" width="756" height="272">
<path d="M0 0 C20.46 0 40.92 0 62 0 C64.43375 5.878125 66.8675 11.75625 69.375 17.8125 C75.27999046 32.06399511 81.21053198 46.30447988 87.17346191 60.53182983 C88.3086335 63.24077309 89.44303882 65.95003582 90.57714844 68.65942383 C91.12923477 69.97835381 91.12923477 69.97835381 91.69247437 71.32392883 C92.42022275 73.06259584 93.14794535 74.80127364 93.87564087 76.53996277 C95.56648059 80.5791155 97.25886226 84.61760371 98.95556641 88.65429688 C100.41977111 92.13791757 101.8792776 95.62346437 103.33480835 99.11071777 C104.10273947 100.94677693 104.87611877 102.78055441 105.6496582 104.61425781 C106.09784912 105.69030273 106.54604004 106.76634766 107.0078125 107.875 C107.39598145 108.80054688 107.78415039 109.72609375 108.18408203 110.6796875 C109 113 109 113 109 116 C85.44289409 116.09352144 61.88581608 116.16401753 38.32856178 116.20724869 C27.39003918 116.22785693 16.45163206 116.25594436 5.51318359 116.30175781 C-4.02291748 116.34167872 -13.5589349 116.36744545 -23.09511721 116.37635398 C-28.14253067 116.38155981 -33.18970485 116.39375927 -38.23704147 116.42292023 C-42.99273649 116.45017231 -47.74809479 116.45842524 -52.50386047 116.45243073 C-54.24446572 116.45352659 -55.98508281 116.46142196 -57.72562027 116.4768219 C-67.93745889 116.56270391 -77.38170916 116.61856556 -85.65625 109.81640625 C-86.2646875 109.07261719 -86.873125 108.32882813 -87.5 107.5625 C-88.1290625 106.82128906 -88.758125 106.08007812 -89.40625 105.31640625 C-92.59563881 100.68084849 -93.24810898 96.87293457 -93.22705078 91.28198242 C-93.22734283 90.62776306 -93.22763489 89.9735437 -93.22793579 89.29949951 C-93.22654982 87.15135121 -93.21102371 85.00355596 -93.1953125 82.85546875 C-93.19157975 81.3604603 -93.18873402 79.8654494 -93.18673706 78.37043762 C-93.17912118 74.44622986 -93.15949041 70.52217145 -93.1373291 66.59802246 C-93.11682649 62.5894574 -93.10772592 58.58086807 -93.09765625 54.57226562 C-93.07624245 46.71477541 -93.04213138 38.85740631 -93 31 C-84.67271053 30.97687316 -76.34543437 30.95908317 -68.01812077 30.94818783 C-64.15179882 30.94295974 -60.28549879 30.93586346 -56.41918945 30.92456055 C-52.69096599 30.913729 -48.96276366 30.9077226 -45.23452568 30.90512276 C-43.80910344 30.90326899 -42.38368241 30.89964929 -40.95826912 30.89426994 C-38.96836592 30.88705607 -36.97844166 30.88659192 -34.98852539 30.88647461 C-33.85379288 30.884254 -32.71906036 30.88203339 -31.54994202 30.87974548 C-29 31 -29 31 -28 32 C-27.9072167 33.38160115 -27.88252957 34.76788038 -27.88647461 36.15258789 C-27.88659546 37.04578735 -27.88671631 37.93898682 -27.88684082 38.85925293 C-27.89195679 39.80417603 -27.89707275 40.74909912 -27.90234375 41.72265625 C-27.90335083 42.58661011 -27.90435791 43.45056396 -27.90539551 44.34069824 C-27.9106445 47.58131225 -27.92460564 50.8219074 -27.9375 54.0625 C-27.958125 61.301875 -27.97875 68.54125 -28 76 C-8.53 75.67 10.94 75.34 31 75 C29.02 67.41 27.04 59.82 25 52 C25 50.68 25 49.36 25 48 C23.91730835 48.00785522 23.91730835 48.00785522 22.81274414 48.01586914 C19.56267151 48.03657358 16.31261272 48.04963918 13.0625 48.0625 C11.35803711 48.07506836 11.35803711 48.07506836 9.61914062 48.08789062 C8.53955078 48.09111328 7.45996094 48.09433594 6.34765625 48.09765625 C4.84730835 48.10551147 4.84730835 48.10551147 3.31665039 48.11352539 C1 48 1 48 0 47 C-0.09304018 45.52645652 -0.11746265 44.04849409 -0.11352539 42.57202148 C-0.11340454 41.61791382 -0.11328369 40.66380615 -0.11315918 39.68078613 C-0.10804321 38.67108765 -0.10292725 37.66138916 -0.09765625 36.62109375 C-0.09664917 35.69816528 -0.09564209 34.77523682 -0.09460449 33.82434082 C-0.08935494 30.36204799 -0.07539381 26.8997728 -0.0625 23.4375 C-0.041875 15.703125 -0.02125 7.96875 0 0 Z " fill="#000000" transform="translate(103,78)"/>
<path d="M0 0 C21.45 0 42.9 0 65 0 C65 14.85 65 29.7 65 45 C105.26 45 145.52 45 187 45 C202 81 202 81 202 85 C178.57327812 85.09352278 155.1465843 85.16401818 131.71971321 85.20724869 C120.84172442 85.22785665 109.96385175 85.25594353 99.0859375 85.30175781 C89.60257414 85.34167959 80.1192949 85.36744565 70.63584983 85.37635398 C65.61638146 85.38155966 60.59715371 85.39375818 55.5777626 85.42292023 C50.84833193 85.45017369 46.11923983 85.45842497 41.38973808 85.45243073 C39.65880808 85.45352653 37.92786615 85.46142107 36.19700432 85.4768219 C25.71347659 85.56548623 17.14453082 85.00730271 8.125 79.125 C3.19030167 74.19030167 0.28711421 68.80716868 -0.24050903 61.81082153 C-0.23606781 60.66942719 -0.23162659 59.52803284 -0.22705078 58.35205078 C-0.22680908 57.03309814 -0.22656738 55.71414551 -0.22631836 54.35522461 C-0.21625014 52.96858527 -0.20591716 51.58194784 -0.1953125 50.1953125 C-0.19329834 48.92357178 -0.19128418 47.65183105 -0.18920898 46.34155273 C-0.17876531 41.602665 -0.15084275 36.86382878 -0.125 32.125 C-0.08375 21.52375 -0.0425 10.9225 0 0 Z " fill="#000000" transform="translate(540,109)"/>
<path d="M0 0 C0.7491875 -0.00256327 1.49837501 -0.00512655 2.27026516 -0.0077675 C4.76390159 -0.01268264 7.25692352 0.00374942 9.75050354 0.02018738 C11.54461655 0.02103414 13.33873061 0.02055754 15.13284302 0.01885986 C19.99186921 0.01800042 24.85067247 0.03561805 29.70964694 0.05658174 C34.79186286 0.07535692 39.8740841 0.07709964 44.95632935 0.08065796 C54.57512214 0.08997594 64.19381244 0.11458642 73.81256014 0.14470643 C84.76534123 0.17825808 95.71812726 0.19473838 106.67094696 0.20979273 C129.19695294 0.24113616 151.722868 0.29389191 174.24879456 0.36076355 C173.02776828 3.48564586 171.81443763 6.25700201 169.92628479 9.03361511 C169.46918625 9.71071533 169.01208771 10.38781555 168.5411377 11.08543396 C168.0515004 11.80019897 167.5618631 12.51496399 167.05738831 13.25138855 C166.29942711 14.36921722 166.29942711 14.36921722 165.52615356 15.5096283 C163.91728723 17.87971261 162.30175643 20.24517133 160.68629456 22.61076355 C159.59538881 24.2172554 158.50488945 25.82402329 157.41481018 27.43107605 C156.37936628 28.95476056 155.34357126 30.47820654 154.30738831 32.00138855 C153.81572678 32.72425049 153.32406525 33.44711243 152.81750488 34.19187927 C149.36744672 39.24211138 149.36744672 39.24211138 148.24879456 40.36076355 C146.83245736 40.46835805 145.41085076 40.50756677 143.99047852 40.51898193 C143.07196106 40.52877075 142.1534436 40.53855957 141.20709229 40.54864502 C140.19145706 40.55440048 139.17582184 40.56015594 138.12940979 40.56608582 C137.06612457 40.57598541 136.00283936 40.58588501 134.90733337 40.59608459 C131.37404141 40.6278069 127.84073598 40.65249928 124.30738831 40.6771698 C121.86500692 40.69773007 119.42262916 40.71872628 116.98025513 40.74014282 C110.53749017 40.79545925 104.0946926 40.84482618 97.65187073 40.89299011 C91.08323752 40.94313544 84.51465195 40.99885779 77.94606018 41.05412292 C65.04701256 41.16182149 52.14792433 41.26342952 39.24879456 41.36076355 C39.57879456 42.35076355 39.90879456 43.34076355 40.24879456 44.36076355 C39.58879456 44.36076355 38.92879456 44.36076355 38.24879456 44.36076355 C38.24879456 57.56076355 38.24879456 70.76076355 38.24879456 84.36076355 C16.79879456 84.36076355 -4.65120544 84.36076355 -26.75120544 84.36076355 C-26.85433044 73.84201355 -26.95745544 63.32326355 -27.06370544 52.48576355 C-27.10922546 49.18334656 -27.15474548 45.88092957 -27.2016449 42.47843933 C-27.21625883 39.83766188 -27.22899735 37.1968731 -27.23948669 34.55607605 C-27.25255356 33.88309479 -27.26562042 33.21011353 -27.27908325 32.51673889 C-27.45683406 22.86669424 -26.77740451 14.80954334 -19.99530029 7.45722961 C-14.17674317 1.94460064 -7.91175029 -0.10052453 0 0 Z " fill="#FE8F00" transform="translate(36.75120544433594,9.639236450195313)"/>
<path d="M0 0 C17.16827845 -0.1170137 34.33643173 -0.2050761 51.50501823 -0.25906086 C59.47743976 -0.28479778 67.44961293 -0.31986129 75.421875 -0.37719727 C82.37382911 -0.42717125 89.32560326 -0.4593238 96.27773201 -0.47044247 C99.95592865 -0.47693776 103.63361067 -0.49210748 107.31164169 -0.52865028 C111.42657653 -0.56919896 115.54062752 -0.56994052 119.65576172 -0.56762695 C120.86345718 -0.58560333 122.07115265 -0.60357971 123.31544495 -0.62210083 C132.07434783 -0.56895711 138.68322857 1.34734725 145.4375 7.0625 C151.38920187 14.44261032 153.13363137 20.65873128 153.11352539 30.18896484 C153.11344986 31.38975677 153.11337433 32.59054871 153.11329651 33.82772827 C153.10813522 35.10918732 153.10297394 36.39064636 153.09765625 37.7109375 C153.09578895 39.04757636 153.09436652 40.38421592 153.09336853 41.72085571 C153.08956795 45.22249269 153.07975891 48.72408756 153.06866455 52.22570801 C153.05839732 55.80541402 153.05380461 59.38512711 153.04882812 62.96484375 C153.03866616 69.97659957 153.01908828 76.98824007 153 84 C142.44 84 131.88 84 121 84 C121 69.48 121 54.96 121 40 C111.09613281 40.57427734 111.09613281 40.57427734 100.9921875 41.16015625 C96.76192811 41.3291801 92.53592803 41.48796272 88.3046875 41.61132812 C81.6101704 41.80745074 74.93077024 42.03688624 68.24804688 42.48950195 C33.08486118 44.81061182 33.08486118 44.81061182 23.80519104 38.50972748 C15.3592717 31.06039011 10.13269217 20.75186364 5.69802856 10.56419373 C4.11254991 7.23624436 2.33722838 4.8167486 0 2 C0 1.34 0 0.68 0 0 Z " fill="#FE8F00" transform="translate(221,10)"/>
<path d="M0 0 C1.94802773 -0.0010952 1.94802773 -0.0010952 3.93540955 -0.00221252 C7.46605106 -0.00363623 10.99582824 0.02558082 14.52627039 0.06065726 C18.22709322 0.09209761 21.92793995 0.09486532 25.62887573 0.1007843 C32.62338556 0.11627123 39.6175006 0.15722894 46.61183727 0.20753175 C54.58042265 0.26358666 62.54902774 0.2909521 70.51776147 0.31600893 C86.89732529 0.36815019 103.27649298 0.4559909 119.65576172 0.56762695 C118.43473544 3.69250926 117.2214048 6.46386542 115.33325195 9.24047852 C114.87615341 9.91757874 114.41905487 10.59467896 113.94810486 11.29229736 C113.45846756 12.00706238 112.96883026 12.72182739 112.46435547 13.45825195 C111.70639427 14.57608063 111.70639427 14.57608063 110.93312073 15.7164917 C109.3242544 18.08657602 107.70872359 20.45203473 106.09326172 22.81762695 C105.00235598 24.4241188 103.91185662 26.03088669 102.82177734 27.63793945 C101.78633344 29.16162396 100.75053842 30.68506994 99.71435547 32.20825195 C99.22269394 32.93111389 98.73103241 33.65397583 98.22447205 34.39874268 C94.77441389 39.44897478 94.77441389 39.44897478 93.65576172 40.56762695 C90.67352998 40.69295783 87.71334538 40.75374273 84.72973633 40.77294922 C83.32500313 40.78779861 83.32500313 40.78779861 81.89189148 40.802948 C78.78065564 40.83466448 75.6694045 40.85936036 72.55810547 40.8840332 C70.4071868 40.90459398 68.25627226 40.92559021 66.10536194 40.94700623 C60.43198983 41.00231745 54.75858071 41.05168668 49.08514404 41.09985352 C42.28448164 41.15881296 35.48388717 41.22509051 28.68328094 41.2901535 C18.34081587 41.38827682 7.99830811 41.477055 -2.34423828 41.56762695 C-2.34423828 55.75762695 -2.34423828 69.94762695 -2.34423828 84.56762695 C-12.24423828 84.56762695 -22.14423828 84.56762695 -32.34423828 84.56762695 C-32.46456471 68.91627824 -32.46456471 68.91627824 -32.49072266 62.20825195 C-32.50860696 57.64369145 -32.52968893 53.07931271 -32.57055664 48.51489258 C-32.60332249 44.83200599 -32.62112728 41.14931452 -32.62887001 37.46629333 C-32.63438281 36.0661665 -32.64514754 34.66604949 -32.66142845 33.26600647 C-32.77239214 23.32203352 -32.48583737 14.80640078 -25.25500298 7.29392529 C-17.77539814 0.53640596 -9.68813813 -0.14420659 0 0 Z " fill="#FE8F00" transform="translate(410.34423828125,9.432373046875)"/>
<path d="M0 0 C8.45767334 -0.02312659 16.91533356 -0.0409167 25.37303066 -0.05181217 C29.29988658 -0.05704031 33.22672094 -0.06413669 37.15356445 -0.07543945 C40.94014257 -0.0862708 44.7266999 -0.09227736 48.51329231 -0.09487724 C49.96104319 -0.09673105 51.40879288 -0.10035081 52.85653496 -0.10573006 C54.87757135 -0.11294367 56.89862848 -0.11340808 58.91967773 -0.11352539 C60.64842384 -0.11685631 60.64842384 -0.11685631 62.41209412 -0.12025452 C65 0 65 0 66 1 C66.09507821 3.58639038 66.12556376 6.1459856 66.11352539 8.73266602 C66.11367142 9.5423584 66.11381744 10.35205078 66.1139679 11.1862793 C66.11326854 13.87551508 66.1054751 16.56468249 66.09765625 19.25390625 C66.09579215 21.11335716 66.09436821 22.97280856 66.09336853 24.83226013 C66.08954271 29.73629096 66.07971188 34.64029236 66.06866455 39.54431152 C66.05845181 44.54451092 66.05387121 49.54471506 66.04882812 54.54492188 C66.03808967 64.36329421 66.02101248 74.18164466 66 84 C59.31067983 84.10181508 52.62156113 84.17163915 45.93164062 84.21972656 C43.65812716 84.23978317 41.3846649 84.26703538 39.11132812 84.30175781 C35.83450651 84.35053712 32.55836975 84.37302897 29.28125 84.390625 C27.76827332 84.42159271 27.76827332 84.42159271 26.22473145 84.45318604 C18.79312071 84.4555239 13.55177641 82.93571608 7.79296875 78.17578125 C7.26316406 77.56089844 6.73335938 76.94601563 6.1875 76.3125 C5.37345703 75.40951172 5.37345703 75.40951172 4.54296875 74.48828125 C-0.55290406 66.27038003 -0.4046763 57.75391642 -0.29296875 48.33984375 C-0.28736211 46.94023599 -0.28309707 45.54062227 -0.28010559 44.14100647 C-0.26874061 40.48637162 -0.23934742 36.83210378 -0.20599365 33.1776123 C-0.17511085 29.43681805 -0.16156165 25.69596356 -0.14648438 21.95507812 C-0.11446796 14.63655281 -0.06337521 7.31832815 0 0 Z " fill="#000000" transform="translate(342,109)"/>
<path d="M0 0 C0.93356323 0.00012085 1.86712646 0.0002417 2.82897949 0.00036621 C3.80685425 0.00548218 4.784729 0.01059814 5.79223633 0.01586914 C6.69349243 0.01687622 7.59474854 0.0178833 8.52331543 0.0189209 C11.89031242 0.02415333 15.25729128 0.03811459 18.62426758 0.05102539 C26.15239258 0.07165039 33.68051758 0.09227539 41.43676758 0.11352539 C41.43676758 27.83352539 41.43676758 55.55352539 41.43676758 84.11352539 C19.98676758 84.11352539 -1.46323242 84.11352539 -23.56323242 84.11352539 C-23.64573242 73.92477539 -23.72823242 63.73602539 -23.81323242 53.23852539 C-23.84964844 50.04052246 -23.88606445 46.84251953 -23.92358398 43.54760742 C-23.93527571 40.98885772 -23.94546639 38.43010054 -23.95385742 35.87133789 C-23.97432129 34.56221436 -23.99478516 33.25309082 -24.01586914 31.90429688 C-24.01930475 22.82226145 -22.62168375 16.02889359 -17.81323242 8.30102539 C-12.76026259 3.38841583 -7.14880201 -0.01958576 0 0 Z " fill="#FE8F00" transform="translate(563.563232421875,9.886474609375)"/>
<path d="M0 0 C1.68996094 -0.02320313 1.68996094 -0.02320313 3.4140625 -0.046875 C4.49171875 -0.04171875 5.569375 -0.0365625 6.6796875 -0.03125 C7.65405762 -0.02673828 8.62842773 -0.02222656 9.63232422 -0.01757812 C12.125 0.5 12.125 0.5 13.96289062 2.38964844 C15.41721769 5.0306575 15.24697684 6.30564662 14.75 9.25 C14.27835852 12.64682218 14.11062 15.54384658 14.625 18.9375 C15.125 22.5 15.125 22.5 14.125 25.5 C11.05905406 27.03297297 7.85388147 26.62131455 4.4921875 26.59765625 C3.36443405 26.59553383 3.36443405 26.59553383 2.21389771 26.59336853 C-0.1907751 26.58776465 -2.59535527 26.57521157 -5 26.5625 C-6.62890491 26.5574855 -8.25781127 26.5529225 -9.88671875 26.54882812 C-13.88287702 26.53864424 -17.87883465 26.51906972 -21.875 26.5 C-21.875 21.22 -21.875 15.94 -21.875 10.5 C-11.975 10.5 -2.075 10.5 8.125 10.5 C8.125 9.18 8.125 7.86 8.125 6.5 C-1.775 6.5 -11.675 6.5 -21.875 6.5 C-21.875 5.84 -21.875 5.18 -21.875 4.5 C-14.61752258 0.39561019 -8.23286137 -0.11541394 0 0 Z M-15.875 16.5 C-15.875 17.82 -15.875 19.14 -15.875 20.5 C-7.955 20.5 -0.035 20.5 8.125 20.5 C8.125 19.18 8.125 17.86 8.125 16.5 C0.205 16.5 -7.715 16.5 -15.875 16.5 Z " fill="#FF9000" transform="translate(172.875,230.5)"/>
<path d="M0 0 C3.79653885 1.44542925 7.35827837 3.15663792 10.95703125 5.0390625 C12.06884766 5.61914062 13.18066406 6.19921875 14.32617188 6.796875 C15.47666016 7.40015625 16.62714844 8.0034375 17.8125 8.625 C18.98232422 9.23601562 20.15214844 9.84703125 21.35742188 10.4765625 C24.23939447 11.98224614 27.11984548 13.49084155 30 15 C30 10.05 30 5.1 30 0 C31.98 0 33.96 0 36 0 C35.896875 1.175625 35.79375 2.35125 35.6875 3.5625 C35.79699883 5.83693497 35.79699883 5.83693497 37 8 C41.0970568 10.89172215 45.42789128 12.96512546 50 15 C50 12.03 50 9.06 50 6 C48.35 6 46.7 6 45 6 C45 4.02 45 2.04 45 0 C48.63 0 52.26 0 56 0 C56.33 8.58 56.66 17.16 57 26 C53.24915361 25.24983072 51.35485727 24.86396529 48.23046875 23.15234375 C47.56982422 22.79462891 46.90917969 22.43691406 46.22851562 22.06835938 C45.55498047 21.69517578 44.88144531 21.32199219 44.1875 20.9375 C43.49462891 20.56044922 42.80175781 20.18339844 42.08789062 19.79492188 C40.38871015 18.86916148 38.69390575 17.93537688 37 17 C36.67 19.97 36.34 22.94 36 26 C31.47729732 24.62670107 27.51229722 22.80843907 23.359375 20.55859375 C22.44699066 20.06698509 22.44699066 20.06698509 21.51617432 19.56544495 C19.59166948 18.52724965 17.67078945 17.48255031 15.75 16.4375 C14.44555278 15.73197744 13.14086738 15.02689506 11.8359375 14.32226562 C9.45648402 13.03717911 7.07877776 11.74906127 4.70214844 10.45874023 C3.1457336 9.61851809 1.58199883 8.79099942 0 8 C0 5.36 0 2.72 0 0 Z " fill="#FF9000" transform="translate(10,231)"/>
<path d="M0 0 C1.4282618 0.00031703 2.85654759 0.01163717 4.28466797 0.03173828 C5.41242142 0.03598312 5.41242142 0.03598312 6.56295776 0.04031372 C8.96775125 0.05152204 11.37217428 0.07662726 13.77685547 0.10205078 C15.40575635 0.11207976 17.03466305 0.12120576 18.66357422 0.12939453 C22.65981103 0.15146343 26.65577041 0.18599728 30.65185547 0.22705078 C30.65185547 0.88705078 30.65185547 1.54705078 30.65185547 2.22705078 C23.83766147 5.96322144 18.28918865 6.75568079 10.58935547 6.47705078 C9.62835938 6.45900391 8.66736328 6.44095703 7.67724609 6.42236328 C5.3343632 6.37573875 2.99367256 6.31033247 0.65185547 6.22705078 C0.65185547 7.54705078 0.65185547 8.86705078 0.65185547 10.22705078 C1.90059448 10.18777466 1.90059448 10.18777466 3.17456055 10.14770508 C6.26629237 10.06244123 9.35742497 9.99978326 12.44995117 9.95239258 C14.44539102 9.91490704 16.44028599 9.85137543 18.43505859 9.78759766 C20.31547852 9.76342773 20.31547852 9.76342773 22.23388672 9.73876953 C23.39122314 9.71258545 24.54855957 9.68640137 25.7409668 9.65942383 C28.65185547 10.22705078 28.65185547 10.22705078 30.52954102 12.53491211 C31.9761211 16.00487917 32.05846987 18.49975207 31.65185547 22.22705078 C30.61157227 24.41748047 30.61157227 24.41748047 28.65185547 26.22705078 C25.93555104 26.58337536 23.63042623 26.69447695 20.92138672 26.61767578 C20.17096603 26.61201599 19.42054535 26.6063562 18.64738464 26.6005249 C16.25239043 26.57814746 13.85889678 26.52795249 11.46435547 26.47705078 C9.84002813 26.45698737 8.21567732 26.43873632 6.59130859 26.42236328 C2.6109134 26.37827872 -1.36836124 26.30924505 -5.34814453 26.22705078 C-3.77946031 23.08968233 -1.12048286 22.40588949 2.01855469 21.06494141 C6.41914704 19.66471584 10.64007507 19.80253678 15.21435547 19.97705078 C16.58430664 20.00412109 16.58430664 20.00412109 17.98193359 20.03173828 C20.20639061 20.07832377 22.42852514 20.14369593 24.65185547 20.22705078 C24.65185547 18.90705078 24.65185547 17.58705078 24.65185547 16.22705078 C23.81412598 16.23752441 22.97639648 16.24799805 22.11328125 16.25878906 C19.00847383 16.29285097 15.90376155 16.31793989 12.79882812 16.33691406 C10.79274187 16.35193185 8.78674223 16.37734059 6.78076172 16.40283203 C5.52392578 16.40927734 4.26708984 16.41572266 2.97216797 16.42236328 C1.80959473 16.43283691 0.64702148 16.44331055 -0.55078125 16.45410156 C-3.34814453 16.22705078 -3.34814453 16.22705078 -5.34814453 14.22705078 C-5.61376953 11.47705078 -5.61376953 11.47705078 -5.59814453 8.22705078 C-5.60330078 7.15455078 -5.60845703 6.08205078 -5.61376953 4.97705078 C-5.20709773 0.76680156 -4.1541816 0.28171131 0 0 Z " fill="#000000" transform="translate(257.34814453125,230.77294921875)"/>
<path d="M0 0 C1.05952629 0.03096771 1.05952629 0.03096771 2.14045715 0.06256104 C2.86868179 0.06822083 3.59690643 0.07388062 4.34719849 0.07971191 C6.67088339 0.10208575 8.99302047 0.15227935 11.3162384 0.20318604 C12.89238799 0.22324995 14.46856178 0.24150091 16.04475403 0.25787354 C19.90667764 0.30195321 23.7674457 0.37098378 27.6287384 0.45318604 C27.6287384 1.11318604 27.6287384 1.77318604 27.6287384 2.45318604 C21.06723407 6.38389854 16.19552088 6.97454651 8.6287384 6.70318604 C7.18047668 6.67611572 7.18047668 6.67611572 5.70295715 6.64849854 C3.34381807 6.60178291 0.98682765 6.5363074 -1.3712616 6.45318604 C-1.3712616 7.77318604 -1.3712616 9.09318604 -1.3712616 10.45318604 C-0.56382507 10.44794922 0.24361145 10.4427124 1.07551575 10.43731689 C4.71824878 10.41658675 8.36096943 10.40353855 12.0037384 10.39068604 C13.27475403 10.38230713 14.54576965 10.37392822 15.8553009 10.36529541 C17.67287903 10.36046143 17.67287903 10.36046143 19.5271759 10.35552979 C21.20819397 10.34767456 21.20819397 10.34767456 22.923172 10.33966064 C25.6287384 10.45318604 25.6287384 10.45318604 27.6287384 11.45318604 C27.65559252 13.76562396 27.67506681 16.07814874 27.6912384 18.39068604 C27.70283997 19.67845947 27.71444153 20.96623291 27.72639465 22.29302979 C27.6287384 25.45318604 27.6287384 25.45318604 26.6287384 26.45318604 C24.03514519 26.54170133 21.46834149 26.56844548 18.87483215 26.55084229 C18.09938553 26.54942734 17.3239389 26.54801239 16.5249939 26.54655457 C14.03870346 26.54093949 11.5525018 26.5283845 9.0662384 26.51568604 C7.38459908 26.51067297 5.70295834 26.50610973 4.02131653 26.50201416 C-0.10957726 26.49096517 -4.24040436 26.47369048 -8.3712616 26.45318604 C-1.27365151 21.06921448 3.72670074 20.03377244 12.5037384 20.26568604 C13.47826965 20.27922119 14.4528009 20.29275635 15.4568634 20.30670166 C17.84806703 20.34186642 20.23810815 20.39107933 22.6287384 20.45318604 C22.6287384 19.13318604 22.6287384 17.81318604 22.6287384 16.45318604 C21.79624573 16.46889648 20.96375305 16.48460693 20.10603333 16.50079346 C17.01425985 16.55195245 13.92270222 16.58955084 10.8306427 16.61798096 C8.8354614 16.64046937 6.84047628 16.67858801 4.84553528 16.71685791 C3.591922 16.72652588 2.33830872 16.73619385 1.04670715 16.74615479 C-0.11062927 16.76186523 -1.2679657 16.77757568 -2.46037292 16.79376221 C-5.3712616 16.45318604 -5.3712616 16.45318604 -7.2474823 15.06744385 C-8.71969777 12.95267333 -8.77218073 11.57736087 -8.7462616 9.01568604 C-8.75399597 8.2538501 -8.76173035 7.49201416 -8.7696991 6.70709229 C-7.81657734 1.31541331 -5.33347876 -0.00243978 0 0 Z " fill="#000000" transform="translate(714.3712615966797,230.54681396484375)"/>
<path d="M0 0 C0.67671753 -0.00287018 1.35343506 -0.00574036 2.05065918 -0.00869751 C3.47958209 -0.01073647 4.90853302 -0.00521819 6.33740234 0.00732422 C8.52374725 0.02338239 10.70824379 0.00747216 12.89453125 -0.01171875 C14.28385824 -0.00973629 15.67318409 -0.00589254 17.0625 0 C18.32642578 0.00338379 19.59035156 0.00676758 20.89257812 0.01025391 C24.03125 0.3984375 24.03125 0.3984375 25.9440918 1.63818359 C27.33146042 3.88451815 27.40430728 5.32722137 27.39453125 7.9609375 C27.39388672 8.84007812 27.39324219 9.71921875 27.39257812 10.625 C27.37646484 11.54023438 27.36035156 12.45546875 27.34375 13.3984375 C27.34697266 14.31367188 27.35019531 15.22890625 27.35351562 16.171875 C27.29846939 22.99760842 27.29846939 22.99760842 25.03125 26.3984375 C22.50119353 26.70300971 20.21941276 26.8186769 17.6875 26.796875 C16.96260376 26.79974518 16.23770752 26.80261536 15.49084473 26.80557251 C13.95759297 26.80761481 12.42431526 26.80207327 10.89111328 26.78955078 C8.5400992 26.77349792 6.19080417 26.78939219 3.83984375 26.80859375 C2.35155869 26.80661135 0.86327471 26.80276772 -0.625 26.796875 C-1.68285706 26.80598404 -1.68285706 26.80598404 -2.76208496 26.8152771 C-4.74414062 26.78662109 -4.74414062 26.78662109 -7.96875 26.3984375 C-10.81674817 22.12644025 -10.29893316 18.42045465 -10.28125 13.3984375 C-10.29736328 12.48320312 -10.31347656 11.56796875 -10.33007812 10.625 C-10.33072266 9.74585938 -10.33136719 8.86671875 -10.33203125 7.9609375 C-10.33501221 7.15785156 -10.33799316 6.35476562 -10.34106445 5.52734375 C-9.96875 3.3984375 -9.96875 3.3984375 -8.8815918 1.63818359 C-5.96166618 -0.25427107 -3.44933784 0.00923459 0 0 Z M-3.96875 6.3984375 C-3.96875 11.0184375 -3.96875 15.6384375 -3.96875 20.3984375 C4.28125 20.3984375 12.53125 20.3984375 21.03125 20.3984375 C21.03125 15.7784375 21.03125 11.1584375 21.03125 6.3984375 C12.78125 6.3984375 4.53125 6.3984375 -3.96875 6.3984375 Z " fill="#000000" transform="translate(594.96875,230.6015625)"/>
<path d="M0 0 C0.70128525 0.00091644 1.4025705 0.00183289 2.12510681 0.0027771 C3.60536481 0.00881195 5.08561065 0.02455489 6.56567383 0.04931641 C8.8352539 0.08586359 11.10320308 0.09033554 13.37304688 0.08984375 C24.48218161 0.16577536 24.48218161 0.16577536 26.77734375 2.4609375 C27.03613281 4.67578125 27.03613281 4.67578125 27.04296875 7.3984375 C27.04683594 8.86410156 27.04683594 8.86410156 27.05078125 10.359375 C27.04304688 11.38289062 27.0353125 12.40640625 27.02734375 13.4609375 C27.03894531 14.99621094 27.03894531 14.99621094 27.05078125 16.5625 C27.04820312 17.53960937 27.045625 18.51671875 27.04296875 19.5234375 C27.04071289 20.42191406 27.03845703 21.32039063 27.03613281 22.24609375 C26.77734375 24.4609375 26.77734375 24.4609375 24.77734375 26.4609375 C20.23539386 26.88428836 15.67883071 26.83253082 11.11938477 26.83154297 C8.85161178 26.83591481 6.58578756 26.87222209 4.31835938 26.91015625 C2.87891291 26.91602472 1.4394572 26.91999391 0 26.921875 C-1.96827759 26.93420166 -1.96827759 26.93420166 -3.97631836 26.94677734 C-7.22265625 26.4609375 -7.22265625 26.4609375 -9.14916992 24.69384766 C-10.28093297 22.33971874 -10.60868419 20.86880764 -10.62109375 18.2734375 C-10.62496094 17.49226563 -10.62882812 16.71109375 -10.6328125 15.90625 C-10.62121094 15.09929687 -10.60960937 14.29234375 -10.59765625 13.4609375 C-10.60925781 12.65398437 -10.62085938 11.84703125 -10.6328125 11.015625 C-10.62894531 10.23445312 -10.62507813 9.45328125 -10.62109375 8.6484375 C-10.61770996 7.94074219 -10.61432617 7.23304688 -10.61083984 6.50390625 C-9.40786369 0.17277136 -5.85314185 -0.03665626 0 0 Z M-3.22265625 6.4609375 C-3.22265625 11.0809375 -3.22265625 15.7009375 -3.22265625 20.4609375 C4.69734375 20.4609375 12.61734375 20.4609375 20.77734375 20.4609375 C20.77734375 15.8409375 20.77734375 11.2209375 20.77734375 6.4609375 C12.85734375 6.4609375 4.93734375 6.4609375 -3.22265625 6.4609375 Z " fill="#000000" transform="translate(322.22265625,230.5390625)"/>
<path d="M0 0 C3.66449552 1.46579821 7.00518778 2.96939144 10.484375 4.78515625 C12.00998047 5.58083008 12.00998047 5.58083008 13.56640625 6.39257812 C14.61699219 6.94365234 15.66757812 7.49472656 16.75 8.0625 C18.34908203 8.89491211 18.34908203 8.89491211 19.98046875 9.74414062 C27.86960739 13.86960739 27.86960739 13.86960739 29 15 C29.33 10.05 29.66 5.1 30 0 C31.98 0 33.96 0 36 0 C36.33 8.58 36.66 17.16 37 26 C32.44195056 25.08839011 29.82285361 24.02628941 25.82421875 21.83984375 C24.66728516 21.21142578 23.51035156 20.58300781 22.31835938 19.93554688 C21.10799432 19.2696741 19.89770884 18.60365665 18.6875 17.9375 C17.458012 17.26697322 16.22819741 16.5970449 14.99804688 15.92773438 C11.99548203 14.29104216 8.99731243 12.64629138 6 11 C6 15.95 6 20.9 6 26 C4.02 26 2.04 26 0 26 C0 17.42 0 8.84 0 0 Z " fill="#000000" transform="translate(646,231)"/>
<path d="M0 0 C1.98 0 3.96 0 6 0 C6 6.6 6 13.2 6 20 C13.92 20 21.84 20 30 20 C30 13.4 30 6.8 30 0 C31.98 0 33.96 0 36 0 C36.05785647 3.95827235 36.09354717 7.9164367 36.125 11.875 C36.14175781 13.00292969 36.15851563 14.13085938 36.17578125 15.29296875 C36.18544922 16.90751953 36.18544922 16.90751953 36.1953125 18.5546875 C36.21102295 20.04718018 36.21102295 20.04718018 36.22705078 21.56982422 C36 24 36 24 34 26 C30.8671875 26.25878906 30.8671875 26.25878906 26.875 26.265625 C26.1722998 26.26753845 25.46959961 26.2694519 24.74560547 26.27142334 C23.25943646 26.27278475 21.77325555 26.26909132 20.28710938 26.26074219 C18.00884354 26.25004154 15.73136623 26.26063839 13.453125 26.2734375 C12.01041492 26.2721159 10.56770534 26.26955349 9.125 26.265625 C7.80757813 26.26336914 6.49015625 26.26111328 5.1328125 26.25878906 C2 26 2 26 0 24 C-0.22705078 21.56982422 -0.22705078 21.56982422 -0.1953125 18.5546875 C-0.18886719 17.47832031 -0.18242187 16.40195313 -0.17578125 15.29296875 C-0.15902344 14.16503906 -0.14226562 13.03710938 -0.125 11.875 C-0.11597656 10.73933594 -0.10695313 9.60367188 -0.09765625 8.43359375 C-0.07403098 5.62218701 -0.04109013 2.81119702 0 0 Z " fill="#000000" transform="translate(434,231)"/>
<path d="M0 0 C12.21 0 24.42 0 37 0 C37 0.66 37 1.32 37 2 C30.185806 5.73617066 24.63733318 6.52863001 16.9375 6.25 C15.97650391 6.23195312 15.01550781 6.21390625 14.02539062 6.1953125 C11.68250773 6.14868796 9.3418171 6.08328169 7 6 C7 7.32 7 8.64 7 10 C16.9 10 26.8 10 37 10 C37 10.66 37 11.32 37 12 C29.31879843 16.56727052 22.18637702 16.4827067 13.4375 16.25 C12.14263672 16.23195313 10.84777344 16.21390625 9.51367188 16.1953125 C6.34212516 16.1485 3.17096303 16.07676844 0 16 C0 10.72 0 5.44 0 0 Z " fill="#FF9000" transform="translate(90,241)"/>
<path d="M0 0 C12.21 0 24.42 0 37 0 C33.9962485 3.0037515 31.8900115 4.39823056 28 6 C26.02 6 24.04 6 22 6 C22 12.6 22 19.2 22 26 C19.69 26 17.38 26 15 26 C15 19.73 15 13.46 15 7 C10.05 6.67 5.1 6.34 0 6 C0 4.02 0 2.04 0 0 Z " fill="#000000" transform="translate(494,231)"/>
<path d="M0 0 C1.98 0 3.96 0 6 0 C6 6.6 6 13.2 6 20 C16.23 20 26.46 20 37 20 C33.22410753 23.77589247 30.11855577 25.77809091 24.74853516 26.34057617 C23.60690918 26.32486572 22.4652832 26.30915527 21.2890625 26.29296875 C20.04511719 26.28330078 18.80117188 26.27363281 17.51953125 26.26367188 C16.23433594 26.23853516 14.94914062 26.21339844 13.625 26.1875 C11.66240234 26.16719727 11.66240234 26.16719727 9.66015625 26.14648438 C6.43992699 26.11122639 3.21991029 26.05742244 0 26 C0 17.42 0 8.84 0 0 Z " fill="#000000" transform="translate(373,231)"/>
<path d="M0 0 C12.21 0 24.42 0 37 0 C33.22410753 3.77589247 30.11855577 5.77809091 24.74853516 6.34057617 C23.60690918 6.32486572 22.4652832 6.30915527 21.2890625 6.29296875 C20.04511719 6.28330078 18.80117187 6.27363281 17.51953125 6.26367188 C16.23433594 6.23853516 14.94914062 6.21339844 13.625 6.1875 C11.66240234 6.16719727 11.66240234 6.16719727 9.66015625 6.14648438 C6.43968156 6.1112237 3.22005394 6.06193633 0 6 C0 4.02 0 2.04 0 0 Z " fill="#FF9000" transform="translate(90,231)"/>
<path d="M0 0 C1.98 0 3.96 0 6 0 C6 8.58 6 17.16 6 26 C4.02 26 2.04 26 0 26 C0 17.42 0 8.84 0 0 Z " fill="#000000" transform="translate(555,231)"/>
<path d="M0 0 C2.31 0 4.62 0 7 0 C7 1.98 7 3.96 7 6 C4.69 6 2.38 6 0 6 C0 4.02 0 2.04 0 0 Z " fill="#000000" transform="translate(600,241)"/>
<path d="M0 0 C1.98 0 3.96 0 6 0 C6 1.98 6 3.96 6 6 C4.02 6 2.04 6 0 6 C0 4.02 0 2.04 0 0 Z " fill="#000000" transform="translate(328,241)"/>
</svg>
