<?xml version="1.0" encoding="UTF-8"?>
<svg version="1.1" xmlns="http://www.w3.org/2000/svg" width="756" height="272">
<path d="M0 0 C20.46 0 40.92 0 62 0 C69.25249814 16.60016241 76.39023788 33.22351357 83.24536133 49.99047852 C86.88818576 58.89522414 90.57511356 67.78026596 94.296875 76.65234375 C95.21803655 78.85106627 96.13917911 81.04979675 97.06030273 83.24853516 C98.43006186 86.51762616 99.80134878 89.78603216 101.17752075 93.0524292 C102.46227672 96.10226657 103.74139639 99.1544144 105.01953125 102.20703125 C105.40739807 103.12322739 105.79526489 104.03942352 106.19488525 104.98338318 C106.5505658 105.83553909 106.90624634 106.68769501 107.27270508 107.56567383 C107.58355545 108.30473465 107.89440582 109.04379547 108.2146759 109.80525208 C109.06531632 112.18253973 109.52729101 114.52298195 110 117 C86.05176422 117.11689678 62.10357131 117.20501938 38.1551075 117.25906086 C27.0349485 117.28482228 15.91496696 117.31993351 4.79492188 117.37719727 C-4.89939276 117.42709521 -14.59357885 117.459306 -24.28801835 117.47044247 C-29.41932539 117.47695037 -34.55026472 117.49220297 -39.6814537 117.52865028 C-44.51599082 117.56271065 -49.35001044 117.57303269 -54.18465614 117.56553841 C-55.95429743 117.56690847 -57.72395688 117.57678098 -59.49349403 117.59602737 C-70.26279687 117.70736641 -78.87155965 117.18560337 -87.4375 109.9375 C-87.953125 109.298125 -88.46875 108.65875 -89 108 C-89.804375 107.0409375 -89.804375 107.0409375 -90.625 106.0625 C-93.65199528 101.52200709 -94.24745024 97.69803779 -94.22705078 92.28198242 C-94.22734283 91.62776306 -94.22763489 90.9735437 -94.22793579 90.29949951 C-94.22654982 88.15135121 -94.21102371 86.00355596 -94.1953125 83.85546875 C-94.19157975 82.3604603 -94.18873402 80.8654494 -94.18673706 79.37043762 C-94.17912118 75.44622986 -94.15949041 71.52217145 -94.1373291 67.59802246 C-94.11321821 62.88398576 -94.10407994 58.16989896 -94.09242249 53.45581818 C-94.07306468 46.30377509 -94.0347281 39.15205935 -94 32 C-72.55 32 -51.1 32 -29 32 C-29 46.85 -29 61.7 -29 77 C-8.87 77 11.26 77 32 77 C30.02 70.07 28.04 63.14 26 56 C25.505 52.04 25.505 52.04 25 48 C16.75 48 8.5 48 0 48 C0 32.16 0 16.32 0 0 Z " fill="#FEFEFE" transform="translate(106,83)"/>
<path d="M0 0 C21.78 0 43.56 0 66 0 C66 14.85 66 29.7 66 45 C106.59 45 147.18 45 189 45 C192.92561573 53.50550075 196.76946087 61.98695609 200.375 70.625 C201.04982422 72.21634766 201.04982422 72.21634766 201.73828125 73.83984375 C202.16238281 74.85433594 202.58648438 75.86882812 203.0234375 76.9140625 C203.40419434 77.8210791 203.78495117 78.7280957 204.17724609 79.66259766 C205 82 205 82 205 85 C181.18212602 85.09351881 157.36427964 85.16401624 133.54625893 85.20724869 C122.48666871 85.22785748 111.42719269 85.25594598 100.36767578 85.30175781 C90.72609929 85.34167701 81.08460553 85.36744504 71.4429487 85.37635398 C66.33964505 85.3815601 61.23657804 85.39376141 56.13335037 85.42292023 C51.32512667 85.45016958 46.517236 85.45842578 41.70894241 85.45243073 C39.94898669 85.45352671 38.18901926 85.46142369 36.42913055 85.4768219 C25.46117443 85.56803942 15.87672992 85.35366928 7.125 77.9375 C-0.45368513 69.49583697 -0.55970515 58.91873118 -0.390625 48.14453125 C-0.38659668 46.91714233 -0.38256836 45.68975342 -0.37841797 44.4251709 C-0.35766004 39.88745951 -0.30181611 35.34996302 -0.25 30.8125 C-0.1675 20.644375 -0.085 10.47625 0 0 Z " fill="#FEFEFE" transform="translate(547,115)"/>
<path d="M0 0 C0.74985336 -0.00085442 1.49970671 -0.00170885 2.2722829 -0.00258917 C4.7919637 -0.00423997 7.31157835 0.00127089 9.83125305 0.00672913 C11.63462828 0.00701111 13.43800362 0.00685304 15.24137878 0.00628662 C20.14394735 0.00599908 25.04649158 0.0118888 29.94905448 0.01886058 C35.07000846 0.02510135 40.19096297 0.02569849 45.31192017 0.02688599 C55.0122591 0.02999716 64.71258679 0.03820768 74.41292077 0.04823548 C85.45510038 0.05940323 96.49728051 0.06490874 107.53946435 0.06993091 C130.25693206 0.08039046 152.97438978 0.09798579 175.69184875 0.12025452 C174.06537743 4.38438113 171.9452285 7.98964318 169.37934875 11.74525452 C168.73751648 12.69585754 168.73751648 12.69585754 168.0827179 13.66566467 C166.62454909 15.82094844 165.15851024 17.97074187 163.69184875 20.12025452 C163.12272766 20.95750061 162.55360657 21.7947467 161.96723938 22.65736389 C159.07840498 26.90713227 156.18510015 31.15386485 153.2816925 35.39369202 C152.56807556 36.43662415 152.56807556 36.43662415 151.84004211 37.50062561 C150.69184875 39.12025452 150.69184875 39.12025452 149.69184875 40.12025452 C148.26238404 40.21579851 146.82822211 40.2421389 145.39556885 40.24050903 C144.46863724 40.2418837 143.54170563 40.24325836 142.58668518 40.24467468 C141.56169922 40.24107941 140.53671326 40.23748413 139.48066711 40.23377991 C137.87110893 40.23399895 137.87110893 40.23399895 136.22903442 40.23422241 C132.6632336 40.23352276 129.09748427 40.2257279 125.5316925 40.21791077 C123.06689482 40.21604677 120.60209677 40.21462278 118.13729858 40.21362305 C111.63530971 40.20979639 105.133343 40.19996484 98.63136292 40.18891907 C92.00244059 40.17817199 85.37351183 40.17412611 78.74458313 40.16908264 C65.72699552 40.1583427 52.70942331 40.14145548 39.69184875 40.12025452 C39.69184875 41.77025452 39.69184875 43.42025452 39.69184875 45.12025452 C39.03184875 45.12025452 38.37184875 45.12025452 37.69184875 45.12025452 C37.69184875 58.32025452 37.69184875 71.52025452 37.69184875 85.12025452 C16.24184875 85.12025452 -5.20815125 85.12025452 -27.30815125 85.12025452 C-27.46858648 68.96977396 -27.46858648 68.96977396 -27.50346375 62.04994202 C-27.52731354 57.34044721 -27.55543278 52.63126545 -27.60990906 47.92201233 C-27.65358424 44.12240178 -27.67733364 40.32312724 -27.68766022 36.52328491 C-27.69501299 35.07847815 -27.70937093 33.63368838 -27.73107147 32.18902588 C-27.84580293 24.22966506 -27.74296297 17.97537879 -23.30815125 11.12025452 C-22.47283875 9.78994202 -22.47283875 9.78994202 -21.62065125 8.43275452 C-15.52032261 2.33242589 -8.44708779 -0.03498486 0 0 Z " fill="#FE8F00" transform="translate(39.30815124511719,13.879745483398438)"/>
<path d="M0 0 C17.1683004 -0.09361108 34.33652068 -0.1640611 51.50501823 -0.20724869 C59.47739083 -0.22783809 67.44960446 -0.25588898 75.421875 -0.30175781 C82.37382847 -0.341737 89.32566677 -0.36745912 96.27773201 -0.37635398 C99.95584703 -0.3815501 103.63363267 -0.39368616 107.31164169 -0.42292023 C111.42649441 -0.45535852 115.54078141 -0.45595235 119.65576172 -0.45410156 C120.86345718 -0.46848267 122.07115265 -0.48286377 123.31544495 -0.49768066 C133.3395878 -0.44902432 141.19516867 1.55048147 148.4296875 8.73046875 C154.28211165 17.18882306 154.54504365 25.01664106 154.390625 35.09765625 C154.38315015 36.54210114 154.37746311 37.98655629 154.37347412 39.43101501 C154.35831525 43.20413991 154.3191204 46.97663356 154.2746582 50.74951172 C154.22623532 55.29167387 154.20812488 59.83404894 154.18484497 64.37639618 C154.14626078 71.25136771 154.06954243 78.12495849 154 85 C143.77 85 133.54 85 123 85 C123 70.48 123 55.96 123 41 C112.74421875 41.19142578 112.74421875 41.19142578 102.28125 41.38671875 C97.94259312 41.44294308 93.60438703 41.49589467 89.265625 41.53710938 C82.38251162 41.60280377 75.50101177 41.68040368 68.61914062 41.82983398 C63.06874473 41.94959519 57.52007903 42.01517383 51.9684906 42.04364967 C49.85359963 42.06393376 47.73880068 42.10354836 45.62464905 42.16303062 C29.0792038 42.60991282 29.0792038 42.60991282 24.02351379 38.69532776 C21.9463382 35.88254706 20.44869594 33.17469527 19 30 C18.25028975 28.85260175 17.47880832 27.71858414 16.6706543 26.61157227 C16.06133057 25.68916748 15.45200684 24.7667627 14.82421875 23.81640625 C14.14166016 22.78708984 13.45910156 21.75777344 12.75585938 20.69726562 C12.07330078 19.66279297 11.39074219 18.62832031 10.6875 17.5625 C9.29662231 15.45894118 7.90473655 13.35604846 6.51171875 11.25390625 C5.90803467 10.33939697 5.30435059 9.4248877 4.68237305 8.48266602 C3.59956578 6.88477498 2.46802764 5.31832308 1.28051758 3.79663086 C0 2 0 2 0 0 Z " fill="#FE8F00" transform="translate(225,14)"/>
<path d="M0 0 C1.68687172 -0.002062 1.68687172 -0.002062 3.40782166 -0.00416565 C4.63708878 -0.00057037 5.8663559 0.0030249 7.13287354 0.00672913 C8.43068253 0.0065831 9.72849152 0.00643707 11.06562805 0.00628662 C14.62107678 0.00599974 18.17649176 0.01187885 21.73193264 0.01886058 C25.44885016 0.02511226 29.16576846 0.02569935 32.88269043 0.02688599 C39.91971738 0.02999394 46.95672879 0.03820013 53.9937489 0.04823548 C62.00577897 0.05941322 70.01780979 0.06491126 78.02984571 0.06993091 C94.50983544 0.08038317 110.98980953 0.09797227 127.4697876 0.12025452 C125.88632569 3.35897265 124.09564998 6.30353068 122.09088135 9.30384827 C121.41605713 10.3151178 120.74123291 11.32638733 120.04595947 12.36830139 C119.34019775 13.42082092 118.63443604 14.47334045 117.9072876 15.55775452 C117.22859619 16.57546936 116.54990479 17.5931842 115.85064697 18.64173889 C114.4909585 20.67550479 113.10977903 22.69509951 111.70547485 24.69831848 C110.15818743 26.96699896 109.04776384 29.02008932 107.86483765 31.54231262 C103.38157003 40.14947512 103.38157003 40.14947512 98.31124306 41.83990669 C91.64159025 42.98412881 84.88737705 42.6095858 78.15338135 42.38978577 C75.96911608 42.36551531 73.78477966 42.34702154 71.60041809 42.33404541 C65.87250685 42.28459012 60.14893496 42.15707044 54.42272949 42.01289368 C47.54106076 41.85601691 40.65793423 41.79674723 33.77498627 41.72100067 C23.33690942 41.59525678 12.90833735 41.34613029 2.4697876 41.12025452 C2.4697876 55.64025452 2.4697876 70.16025452 2.4697876 85.12025452 C-7.1002124 85.12025452 -16.6702124 85.12025452 -26.5302124 85.12025452 C-26.70319642 77.60713807 -26.87397866 70.09449378 -27.02450562 62.58097839 C-27.09522365 59.08121697 -27.1697427 55.58163612 -27.25384521 52.08216858 C-27.35042361 48.05599866 -27.42898616 44.02964414 -27.5067749 40.00306702 C-27.53897125 38.76412689 -27.5711676 37.52518677 -27.6043396 36.248703 C-27.79048575 25.35529639 -27.28264429 15.41061025 -19.5302124 7.12025452 C-13.21906677 2.38191804 -7.87963478 -0.00743362 0 0 Z " fill="#FE8F00" transform="translate(410.53021240234375,13.879745483398438)"/>
<path d="M0 0 C21.45 0 42.9 0 65 0 C66.125 14.625 66.125 14.625 66.11352539 21.08520508 C66.11367142 21.7893605 66.11381744 22.49351593 66.1139679 23.2190094 C66.11328583 25.48588437 66.10557607 27.75267113 66.09765625 30.01953125 C66.09578597 31.61520849 66.09436496 33.21088631 66.09336853 34.80656433 C66.08959134 38.96076099 66.07980338 43.11492143 66.06866455 47.269104 C66.05834593 51.5264029 66.05384876 55.78370777 66.04882812 60.04101562 C66.03817568 68.36069351 66.02115863 76.68034222 66 85 C59.73787296 85.07640543 53.47586729 85.12874837 47.21337891 85.16479492 C45.08540352 85.17983076 42.95745886 85.20026483 40.82958984 85.22631836 C37.76131583 85.26293089 34.69345351 85.27977881 31.625 85.29296875 C30.68197021 85.30845261 29.73894043 85.32393646 28.76733398 85.33988953 C19.38038187 85.34225201 11.81126988 82.60875763 5 76 C-0.7450001 68.14401261 -0.66631523 59.9017454 -0.48828125 50.5859375 C-0.48324585 49.29856689 -0.47821045 48.01119629 -0.47302246 46.68481445 C-0.44702891 41.91464702 -0.37722301 37.14479915 -0.3125 32.375 C-0.1578125 16.349375 -0.1578125 16.349375 0 0 Z " fill="#FFFFFF" transform="translate(348,115)"/>
<path d="M0 0 C0.87857666 0.00201416 1.75715332 0.00402832 2.66235352 0.00610352 C5.92339346 0.01651498 9.18435859 0.04443737 12.4453125 0.0703125 C23.3971875 0.1321875 23.3971875 0.1321875 34.5703125 0.1953125 C34.5703125 28.2453125 34.5703125 56.2953125 34.5703125 85.1953125 C12.7903125 85.1953125 -8.9896875 85.1953125 -31.4296875 85.1953125 C-31.4915625 75.3365625 -31.5534375 65.4778125 -31.6171875 55.3203125 C-31.65815552 50.6799292 -31.65815552 50.6799292 -31.69995117 45.94580078 C-31.70872042 43.46907948 -31.71636332 40.99235383 -31.72265625 38.515625 C-31.73800415 37.24968506 -31.75335205 35.98374512 -31.76916504 34.67944336 C-31.77241931 23.57371548 -30.29320458 14.46061512 -22.4296875 6.1953125 C-15.28317168 0.53765414 -8.78800493 -0.09556269 0 0 Z " fill="#FE8F00" transform="translate(578.4296875,13.8046875)"/>
<path d="M0 0 C1.22456909 0.00386719 1.22456909 0.00386719 2.47387695 0.0078125 C11.86539577 0.24039577 11.86539577 0.24039577 15.0625 3.4375 C15.16073996 4.91398876 15.19223519 6.39525417 15.1875 7.875 C15.19136719 9.07962891 15.19136719 9.07962891 15.1953125 10.30859375 C15.0625 12.4375 15.0625 12.4375 14.0625 14.4375 C14.5575 15.4275 14.5575 15.4275 15.0625 16.4375 C15.18255453 17.93399362 15.23781451 19.43624793 15.25 20.9375 C15.26417969 21.7315625 15.27835938 22.525625 15.29296875 23.34375 C15.0625 25.4375 15.0625 25.4375 13.0625 27.4375 C10.40958243 27.61260386 7.86263826 27.66905483 5.2109375 27.6328125 C4.43690582 27.6299826 3.66287415 27.62715271 2.86538696 27.62423706 C0.38926843 27.61302754 -2.0864905 27.58792203 -4.5625 27.5625 C-6.23957812 27.55247118 -7.91666189 27.54334516 -9.59375 27.53515625 C-13.70858387 27.51478579 -17.82263866 27.47563981 -21.9375 27.4375 C-21.9375 22.1575 -21.9375 16.8775 -21.9375 11.4375 C-11.7075 11.4375 -1.4775 11.4375 9.0625 11.4375 C9.0625 10.1175 9.0625 8.7975 9.0625 7.4375 C-1.1675 7.4375 -11.3975 7.4375 -21.9375 7.4375 C-21.9375 6.7775 -21.9375 6.1175 -21.9375 5.4375 C-14.54966956 1.30857281 -8.36770404 -0.03857196 0 0 Z M-14.9375 17.4375 C-14.9375 18.7575 -14.9375 20.0775 -14.9375 21.4375 C-7.0175 21.4375 0.9025 21.4375 9.0625 21.4375 C9.0625 20.1175 9.0625 18.7975 9.0625 17.4375 C1.1425 17.4375 -6.7775 17.4375 -14.9375 17.4375 Z " fill="#FF9000" transform="translate(175.9375,236.5625)"/>
<path d="M0 0 C1.2065625 0.0309375 1.2065625 0.0309375 2.4375 0.0625 C2.37046875 0.64257812 2.3034375 1.22265625 2.234375 1.8203125 C2.17857035 4.63844711 2.32870754 6.44982812 3.4375 9.0625 C7.18325353 11.70750428 11.16916657 13.4208333 15.4375 15.0625 C15.7675 12.7525 16.0975 10.4425 16.4375 8.0625 C13.9625 7.5675 13.9625 7.5675 11.4375 7.0625 C11.39495644 5.06295254 11.39669217 3.06208364 11.4375 1.0625 C12.4375 0.0625 12.4375 0.0625 14.6875 -0.0703125 C15.595 -0.06773437 16.5025 -0.06515625 17.4375 -0.0625 C18.79875 -0.06636719 18.79875 -0.06636719 20.1875 -0.0703125 C22.4375 0.0625 22.4375 0.0625 23.4375 1.0625 C23.52498207 2.98917507 23.54447334 4.91901861 23.53515625 6.84765625 C23.53193359 8.01748047 23.52871094 9.18730469 23.52539062 10.39257812 C23.51282227 12.24012695 23.51282227 12.24012695 23.5 14.125 C23.49548828 15.36056641 23.49097656 16.59613281 23.48632812 17.86914062 C23.47449608 20.93364117 23.45801173 23.99804721 23.4375 27.0625 C20.44593299 26.42605878 18.01811047 25.44297987 15.328125 23.99609375 C14.57402344 23.59326172 13.81992187 23.19042969 13.04296875 22.77539062 C11.87701172 22.14407227 11.87701172 22.14407227 10.6875 21.5 C9.89472656 21.07525391 9.10195313 20.65050781 8.28515625 20.21289062 C6.33382338 19.16669408 4.38537608 18.11511862 2.4375 17.0625 C2.9325 22.0125 2.9325 22.0125 3.4375 27.0625 C-0.72451877 26.45345903 -3.84030426 25.04256669 -7.52734375 23.04296875 C-8.65720703 22.43259766 -9.78707031 21.82222656 -10.95117188 21.19335938 C-11.8260022 20.71419067 -11.8260022 20.71419067 -12.71850586 20.2253418 C-14.48750589 19.25684034 -16.261723 18.2985315 -18.03710938 17.34179688 C-29.73504878 10.98958249 -29.73504878 10.98958249 -33.5625 8.0625 C-33.9375 4.3125 -33.9375 4.3125 -33.5625 1.0625 C-29.33519641 2.36194352 -25.60177138 3.97644795 -21.7265625 6.1015625 C-20.66308594 6.68164062 -19.59960938 7.26171875 -18.50390625 7.859375 C-16.86228516 8.76429688 -16.86228516 8.76429688 -15.1875 9.6875 C-14.06988281 10.29851562 -12.95226562 10.90953125 -11.80078125 11.5390625 C-9.05226451 13.04252465 -6.30630098 14.55045401 -3.5625 16.0625 C-3.57410156 14.99128906 -3.58570312 13.92007813 -3.59765625 12.81640625 C-3.60703299 11.41927257 -3.61613331 10.02213701 -3.625 8.625 C-3.63337891 7.91794922 -3.64175781 7.21089844 -3.65039062 6.48242188 C-3.65903588 4.67556441 -3.61470011 2.86862397 -3.5625 1.0625 C-2.5625 0.0625 -2.5625 0.0625 0 0 Z " fill="#FF9000" transform="translate(45.5625,236.9375)"/>
<path d="M0 0 C1.0236264 0.00212242 1.0236264 0.00212242 2.06793213 0.00428772 C4.23804184 0.00986541 6.4080467 0.02241371 8.578125 0.03515625 C10.05338392 0.04017414 11.52864447 0.04473654 13.00390625 0.04882812 C16.61201298 0.0598275 20.22005875 0.07707672 23.828125 0.09765625 C22.71318039 3.44249009 22.40798166 3.70617086 19.453125 5.26953125 C14.28808074 7.69064575 9.43478528 7.54872269 3.828125 7.34765625 C2.37986328 7.32058594 2.37986328 7.32058594 0.90234375 7.29296875 C-1.45679533 7.24625312 -3.81378575 7.18077762 -6.171875 7.09765625 C-6.171875 8.41765625 -6.171875 9.73765625 -6.171875 11.09765625 C-5.33414551 11.08718262 -4.49641602 11.07670898 -3.63330078 11.06591797 C-0.52849336 11.03185606 2.57621892 11.00676714 5.68115234 10.98779297 C7.6872386 10.97277518 9.69323824 10.94736644 11.69921875 10.921875 C12.95605469 10.91542969 14.21289062 10.90898437 15.5078125 10.90234375 C16.67038574 10.89187012 17.83295898 10.88139648 19.03076172 10.87060547 C21.828125 11.09765625 21.828125 11.09765625 23.828125 13.09765625 C24.09375 15.84765625 24.09375 15.84765625 24.078125 19.09765625 C24.08585938 20.70640625 24.08585938 20.70640625 24.09375 22.34765625 C23.828125 25.09765625 23.828125 25.09765625 21.828125 27.09765625 C19.24709194 27.2726862 16.77504337 27.32927904 14.1953125 27.29296875 C13.06755905 27.28872391 13.06755905 27.28872391 11.91702271 27.28439331 C9.51222922 27.27318499 7.10780619 27.24807977 4.703125 27.22265625 C3.07422412 27.21262727 1.44531742 27.20350128 -0.18359375 27.1953125 C-4.17983056 27.1732436 -8.17578994 27.13870976 -12.171875 27.09765625 C-12.171875 26.43765625 -12.171875 25.77765625 -12.171875 25.09765625 C-5.357681 21.36148559 0.19079182 20.56902624 7.890625 20.84765625 C9.33211914 20.87472656 9.33211914 20.87472656 10.80273438 20.90234375 C13.14561727 20.94896829 15.4863079 21.01437456 17.828125 21.09765625 C17.828125 19.77765625 17.828125 18.45765625 17.828125 17.09765625 C16.57938599 17.12907715 16.57938599 17.12907715 15.30541992 17.16113281 C12.21366466 17.22934441 9.12229303 17.27947349 6.0300293 17.31738281 C4.03473486 17.34736906 2.03978918 17.39819411 0.04492188 17.44921875 C-1.83549805 17.46855469 -1.83549805 17.46855469 -3.75390625 17.48828125 C-4.91124268 17.50922852 -6.0685791 17.53017578 -7.26098633 17.55175781 C-10.171875 17.09765625 -10.171875 17.09765625 -12.05029297 15.19824219 C-13.8508808 11.82596146 -13.60771594 8.82142003 -13.171875 5.09765625 C-12.421875 2.66015625 -12.421875 2.66015625 -11.171875 1.09765625 C-7.52279704 -0.22674697 -3.84105272 -0.01574202 0 0 Z " fill="#FFFFFF" transform="translate(728.171875,236.90234375)"/>
<path d="M0 0 C1.0236264 0.00212242 1.0236264 0.00212242 2.06793213 0.00428772 C4.23804184 0.00986541 6.4080467 0.02241371 8.578125 0.03515625 C10.05338392 0.04017414 11.52864447 0.04473654 13.00390625 0.04882812 C16.61201298 0.0598275 20.22005875 0.07707672 23.828125 0.09765625 C22.828125 3.09765625 22.828125 3.09765625 21.13305664 4.25683594 C15.01767126 7.06256744 9.94119095 7.60233668 3.265625 7.34765625 C1.89567383 7.32058594 1.89567383 7.32058594 0.49804688 7.29296875 C-1.72641014 7.24638326 -3.94854467 7.1810111 -6.171875 7.09765625 C-6.171875 8.41765625 -6.171875 9.73765625 -6.171875 11.09765625 C-5.33414551 11.08718262 -4.49641602 11.07670898 -3.63330078 11.06591797 C-0.52849336 11.03185606 2.57621892 11.00676714 5.68115234 10.98779297 C7.6872386 10.97277518 9.69323824 10.94736644 11.69921875 10.921875 C12.95605469 10.91542969 14.21289062 10.90898437 15.5078125 10.90234375 C16.67038574 10.89187012 17.83295898 10.88139648 19.03076172 10.87060547 C21.828125 11.09765625 21.828125 11.09765625 23.828125 13.09765625 C24.09375 15.84765625 24.09375 15.84765625 24.078125 19.09765625 C24.08585937 20.70640625 24.08585937 20.70640625 24.09375 22.34765625 C23.828125 25.09765625 23.828125 25.09765625 21.828125 27.09765625 C19.17520743 27.27276011 16.62826326 27.32921108 13.9765625 27.29296875 C13.20253082 27.29013885 12.42849915 27.28730896 11.63101196 27.28439331 C9.15489343 27.27318379 6.6791345 27.24807828 4.203125 27.22265625 C2.52604688 27.21262743 0.84896311 27.20350141 -0.828125 27.1953125 C-4.94284723 27.17324199 -9.05730011 27.13870727 -13.171875 27.09765625 C-11.60504208 23.96399041 -8.97297274 23.27543101 -5.83642578 21.93554688 C-1.27393404 20.5008326 3.15273568 20.67620862 7.890625 20.84765625 C9.33211914 20.87472656 9.33211914 20.87472656 10.80273438 20.90234375 C13.14561727 20.94896829 15.4863079 21.01437456 17.828125 21.09765625 C17.828125 19.77765625 17.828125 18.45765625 17.828125 17.09765625 C16.99563232 17.1133667 16.16313965 17.12907715 15.30541992 17.14526367 C12.21364644 17.19642267 9.12208882 17.23402105 6.0300293 17.26245117 C4.03484799 17.28493958 2.03986287 17.32305823 0.04492188 17.36132812 C-1.20869141 17.37099609 -2.46230469 17.38066406 -3.75390625 17.390625 C-4.91124268 17.40633545 -6.0685791 17.4220459 -7.26098633 17.43823242 C-10.171875 17.09765625 -10.171875 17.09765625 -12.05029297 15.7277832 C-13.61021802 13.46056084 -13.53715603 11.82602975 -13.484375 9.09765625 C-13.48050781 8.23140625 -13.47664062 7.36515625 -13.47265625 6.47265625 C-13.171875 4.09765625 -13.171875 4.09765625 -11.171875 1.09765625 C-7.61237514 -0.34884406 -3.7864544 -0.01551826 0 0 Z " fill="#FFFFFF" transform="translate(269.171875,236.90234375)"/>
<path d="M0 0 C1.7015625 -0.00386719 1.7015625 -0.00386719 3.4375 -0.0078125 C4.613125 -0.00007812 5.78875 0.00765625 7 0.015625 C8.7634375 0.00402344 8.7634375 0.00402344 10.5625 -0.0078125 C11.696875 -0.00523437 12.83125 -0.00265625 14 0 C15.03125 0.00225586 16.0625 0.00451172 17.125 0.00683594 C20.16011605 0.28003762 22.31461974 0.82822726 25 2.265625 C26.26864164 6.07154993 26.22320072 9.67433141 26.25 13.640625 C26.270625 14.39601562 26.29125 15.15140625 26.3125 15.9296875 C26.32023437 17.03570312 26.32023437 17.03570312 26.328125 18.1640625 C26.34214355 19.16445557 26.34214355 19.16445557 26.35644531 20.18505859 C25.836489 23.22003646 24.99402325 24.90308606 23 27.265625 C19.76953125 27.91259766 19.76953125 27.91259766 15.8125 27.9296875 C15.11358643 27.93447113 14.41467285 27.93925476 13.69458008 27.94418335 C12.21856431 27.94758212 10.74247326 27.93838061 9.26660156 27.91748047 C7.006757 27.89070506 4.75187755 27.91721878 2.4921875 27.94921875 C1.0572807 27.94591464 -0.37762301 27.93950834 -1.8125 27.9296875 C-3.11832031 27.92404785 -4.42414063 27.9184082 -5.76953125 27.91259766 C-9 27.265625 -9 27.265625 -10.92871094 24.96459961 C-12.36009327 21.35841645 -12.36186748 18.01710702 -12.25 14.203125 C-12.24226563 13.14254883 -12.24226563 13.14254883 -12.234375 12.06054688 C-12.12166737 4.55844506 -12.12166737 4.55844506 -11 2.265625 C-7.25147905 0.39515176 -4.15951925 0.00909895 0 0 Z M-5 7.265625 C-5 11.885625 -5 16.505625 -5 21.265625 C2.92 21.265625 10.84 21.265625 19 21.265625 C19 16.645625 19 12.025625 19 7.265625 C11.08 7.265625 3.16 7.265625 -5 7.265625 Z " fill="#FFFFFF" transform="translate(329,236.734375)"/>
<path d="M0 0 C1.69866211 -0.01836914 1.69866211 -0.01836914 3.43164062 -0.03710938 C5.07229492 -0.04000977 5.07229492 -0.04000977 6.74609375 -0.04296875 C7.74181396 -0.04707764 8.73753418 -0.05118652 9.76342773 -0.05541992 C12.98084265 0.22380623 16.19987176 0.82487176 18.5625 3.1875 C18.81406269 6.82649175 18.74772226 10.47833673 18.75 14.125 C18.76224609 15.15302734 18.77449219 16.18105469 18.78710938 17.24023438 C18.78904297 18.22185547 18.79097656 19.20347656 18.79296875 20.21484375 C18.79707764 21.11968506 18.80118652 22.02452637 18.80541992 22.95678711 C18.5625 25.1875 18.5625 25.1875 16.5625 27.1875 C14.07683457 27.38698557 11.7049925 27.46739743 9.21875 27.453125 C8.49385376 27.45503845 7.76895752 27.4569519 7.02209473 27.45892334 C5.48884738 27.46028487 3.9555885 27.45659064 2.42236328 27.44824219 C0.07167741 27.43754178 -2.27824423 27.44813808 -4.62890625 27.4609375 C-6.11718919 27.4596159 -7.60547166 27.45705349 -9.09375 27.453125 C-9.79898804 27.45717346 -10.50422607 27.46122192 -11.23083496 27.46539307 C-16.20757514 27.41742486 -16.20757514 27.41742486 -18.4375 25.1875 C-18.69628906 22.97265625 -18.69628906 22.97265625 -18.703125 20.25 C-18.70570313 19.27289063 -18.70828125 18.29578125 -18.7109375 17.2890625 C-18.70320312 16.26554687 -18.69546875 15.24203125 -18.6875 14.1875 C-18.69523438 13.16398438 -18.70296875 12.14046875 -18.7109375 11.0859375 C-18.70835937 10.10882813 -18.70578125 9.13171875 -18.703125 8.125 C-18.70086914 7.22652344 -18.69861328 6.32804688 -18.69628906 5.40234375 C-18.4375 3.1875 -18.4375 3.1875 -16.4375 1.1875 C-11.23669576 -0.61832484 -5.42792843 0.0030788 0 0 Z M-12.4375 7.1875 C-12.4375 11.8075 -12.4375 16.4275 -12.4375 21.1875 C-4.1875 21.1875 4.0625 21.1875 12.5625 21.1875 C12.5625 16.5675 12.5625 11.9475 12.5625 7.1875 C4.3125 7.1875 -3.9375 7.1875 -12.4375 7.1875 Z " fill="#FFFFFF" transform="translate(611.4375,236.8125)"/>
<path d="M0 0 C2.475 0.495 2.475 0.495 5 1 C5 9.58 5 18.16 5 27 C0.56950641 25.5231688 -2.82565372 24.16012538 -6.8359375 21.9609375 C-7.89941406 21.38085938 -8.96289062 20.80078125 -10.05859375 20.203125 C-11.15300781 19.59984375 -12.24742187 18.9965625 -13.375 18.375 C-14.49261719 17.76398438 -15.61023438 17.15296875 -16.76171875 16.5234375 C-19.51020563 15.01999169 -22.25542704 13.51057892 -25 12 C-25 16.95 -25 21.9 -25 27 C-27.31 27 -29.62 27 -32 27 C-32 18.42 -32 9.84 -32 1 C-27.73900387 1.85219923 -25.47374572 2.62286008 -21.8046875 4.65234375 C-20.84175781 5.18150391 -19.87882813 5.71066406 -18.88671875 6.25585938 C-17.39591797 7.08827148 -17.39591797 7.08827148 -15.875 7.9375 C-14.87339844 8.48857422 -13.87179687 9.03964844 -12.83984375 9.60742188 C-9.14728524 11.64700285 -5.51130695 13.6591287 -2 16 C-1.90912109 14.39318359 -1.90912109 14.39318359 -1.81640625 12.75390625 C-1.73201463 11.35675609 -1.64736594 9.95962143 -1.5625 8.5625 C-1.52318359 7.85544922 -1.48386719 7.14839844 -1.44335938 6.41992188 C-1.11328125 1.11328125 -1.11328125 1.11328125 0 0 Z " fill="#FFFFFF" transform="translate(686,237)"/>
<path d="M0 0 C1.65 0 3.3 0 5 0 C5 6.93 5 13.86 5 21 C13.25 21 21.5 21 30 21 C30 14.07 30 7.14 30 0 C31.65 0 33.3 0 35 0 C37.53309722 2.53309722 36.18555171 9.52994908 36.1875 12.9375 C36.19974609 14.06091797 36.21199219 15.18433594 36.22460938 16.34179688 C36.22654297 17.41365234 36.22847656 18.48550781 36.23046875 19.58984375 C36.23457764 20.57847412 36.23868652 21.56710449 36.24291992 22.58569336 C36 25 36 25 34 27 C31.51433457 27.19948557 29.1424925 27.27989743 26.65625 27.265625 C25.93135376 27.26753845 25.20645752 27.2694519 24.45959473 27.27142334 C22.92634738 27.27278487 21.3930885 27.26909064 19.85986328 27.26074219 C17.50917741 27.25004178 15.15925577 27.26063808 12.80859375 27.2734375 C11.32031081 27.2721159 9.83202834 27.26955349 8.34375 27.265625 C7.63851196 27.26967346 6.93327393 27.27372192 6.20666504 27.27789307 C1.22992486 27.22992486 1.22992486 27.22992486 -1 25 C-1.24291992 22.58569336 -1.24291992 22.58569336 -1.23046875 19.58984375 C-1.22853516 18.51798828 -1.22660156 17.44613281 -1.22460938 16.34179688 C-1.21236328 15.21837891 -1.20011719 14.09496094 -1.1875 12.9375 C-1.18685547 11.81021484 -1.18621094 10.68292969 -1.18554688 9.52148438 C-1.14013317 1.14013317 -1.14013317 1.14013317 0 0 Z " fill="#FFFFFF" transform="translate(441,237)"/>
<path d="M0 0 C0 0.99 0 1.98 0 3 C-6.69083779 7.0463638 -11.7722035 7.5136781 -19.5 7.25 C-20.51320313 7.23195312 -21.52640625 7.21390625 -22.5703125 7.1953125 C-25.04788607 7.14856583 -27.52342316 7.08306372 -30 7 C-30 8.32 -30 9.64 -30 11 C-19.77 11 -9.54 11 1 11 C1 11.66 1 12.32 1 13 C-6.68120157 17.56727052 -13.81362298 17.4827067 -22.5625 17.25 C-23.85736328 17.23195313 -25.15222656 17.21390625 -26.48632812 17.1953125 C-29.65787484 17.1485 -32.82903697 17.07676844 -36 17 C-36 11.72 -36 6.44 -36 1 C-24.12 0.67 -12.24 0.34 0 0 Z " fill="#FF9000" transform="translate(129,247)"/>
<path d="M0 0 C1.51815699 0.00015911 3.0363194 0.00585313 4.55444336 0.01586914 C5.35208603 0.01728409 6.1497287 0.01869904 6.97154236 0.02015686 C9.52916146 0.02577223 12.08669429 0.03832727 14.64428711 0.05102539 C16.37410356 0.05603841 18.10392137 0.06060166 19.83374023 0.06469727 C24.08312264 0.07574664 28.33244023 0.09302153 32.58178711 0.11352539 C31.58178711 3.11352539 31.58178711 3.11352539 29.69116211 4.28149414 C28.91256836 4.61793945 28.13397461 4.95438477 27.33178711 5.30102539 C26.56350586 5.64520508 25.79522461 5.98938477 25.00366211 6.34399414 C22.58178711 7.11352539 22.58178711 7.11352539 17.58178711 7.11352539 C17.58178711 13.71352539 17.58178711 20.31352539 17.58178711 27.11352539 C15.27178711 27.11352539 12.96178711 27.11352539 10.58178711 27.11352539 C10.58178711 20.84352539 10.58178711 14.57352539 10.58178711 8.11352539 C5.63178711 7.78352539 0.68178711 7.45352539 -4.41821289 7.11352539 C-4.41821289 0.1467373 -4.41821289 0.1467373 0 0 Z " fill="#FFFFFF" transform="translate(505.418212890625,236.886474609375)"/>
<path d="M0 0 C1.65 0 3.3 0 5 0 C6 1 6 1 6.11352539 2.94946289 C6.10828857 3.7821167 6.10305176 4.61477051 6.09765625 5.47265625 C6.09515869 6.28226807 6.09266113 7.09187988 6.09008789 7.92602539 C6.07643188 9.47858032 6.07643188 9.47858032 6.0625 11.0625 C6.041875 14.341875 6.02125 17.62125 6 21 C16.23 21 26.46 21 37 21 C33.22410753 24.77589247 30.11855577 26.77809091 24.74853516 27.34057617 C23.60690918 27.32486572 22.4652832 27.30915527 21.2890625 27.29296875 C20.04511719 27.28330078 18.80117188 27.27363281 17.51953125 27.26367188 C16.23433594 27.23853516 14.94914062 27.21339844 13.625 27.1875 C11.66240234 27.16719727 11.66240234 27.16719727 9.66015625 27.14648438 C6.43992699 27.11122639 3.21991029 27.05742244 0 27 C0 18.09 0 9.18 0 0 Z " fill="#FFFFFF" transform="translate(379,237)"/>
<path d="M0 0 C1.51815699 0.00015911 3.0363194 0.00585313 4.55444336 0.01586914 C5.35208603 0.01728409 6.1497287 0.01869904 6.97154236 0.02015686 C9.52916146 0.02577223 12.08669429 0.03832727 14.64428711 0.05102539 C16.37410356 0.05603841 18.10392137 0.06060166 19.83374023 0.06469727 C24.08312264 0.07574664 28.33244023 0.09302153 32.58178711 0.11352539 C32.58178711 0.77352539 32.58178711 1.43352539 32.58178711 2.11352539 C24.56093522 7.24960367 17.82534975 7.75201927 8.45678711 7.42602539 C6.59280273 7.3921875 6.59280273 7.3921875 4.69116211 7.35766602 C1.65341326 7.29924777 -1.38173569 7.21738301 -4.41821289 7.11352539 C-4.46075645 5.11397793 -4.45902072 3.11310903 -4.41821289 1.11352539 C-3.41821289 0.11352539 -3.41821289 0.11352539 0 0 Z " fill="#FF9000" transform="translate(97.418212890625,236.886474609375)"/>
<path d="M0 0 C2.5 0.125 2.5 0.125 3.5 1.125 C3.58748207 3.05167507 3.60697334 4.98151861 3.59765625 6.91015625 C3.59443359 8.07998047 3.59121094 9.24980469 3.58789062 10.45507812 C3.57951172 11.68677734 3.57113281 12.91847656 3.5625 14.1875 C3.55798828 15.42306641 3.55347656 16.65863281 3.54882812 17.93164062 C3.53699608 20.99614117 3.52051173 24.06054721 3.5 27.125 C1.19 27.125 -1.12 27.125 -3.5 27.125 C-3.52886537 22.81251391 -3.54675255 18.50005238 -3.5625 14.1875 C-3.57087891 12.95580078 -3.57925781 11.72410156 -3.58789062 10.45507812 C-3.59111328 9.28525391 -3.59433594 8.11542969 -3.59765625 6.91015625 C-3.60289307 5.82613525 -3.60812988 4.74211426 -3.61352539 3.62524414 C-3.46053674 0.25587483 -3.36785946 0.16839297 0 0 Z " fill="#FFFFFF" transform="translate(565.5,236.875)"/>
<path d="M0 0 C2.31 0 4.62 0 7 0 C7 1.98 7 3.96 7 6 C4.69 6 2.38 6 0 6 C0 4.02 0 2.04 0 0 Z " fill="#FFFFFF" transform="translate(608,248)"/>
<path d="M0 0 C1.98 0 3.96 0 6 0 C6 1.98 6 3.96 6 6 C4.02 6 2.04 6 0 6 C0 4.02 0 2.04 0 0 Z " fill="#FFFFFF" transform="translate(333,248)"/>
</svg>
